# xmcd
#
# Track frame offsets: 
#        150
#        17252
#        31142
#        44462
#        58275
#        72460
#        90837
#        100960
#        112977
#        123855
#
# Disc length: 1912 seconds
#
# Revision: 0
# Processed by: cddbd v1.5.2PL0 Copyright (c) Steve Scherf et al.
# Submitted via: ExactAudioCopy v0.95a4
#
DISCID=7707760a
DTITLE=Rodney (Gravy) Harris - If You Believe
DYEAR=2006
DGENRE=Blues
TTITLE0=If You Believe
TTITLE1=Am I Right
TTITLE2=Just Because
TTITLE3=Little Devil
TTITLE4=Have You Ever Had The Blues
TTITLE5=Devil's Children
TTITLE6=Must Be A Way
TTITLE7=What You Gonna Do
TTITLE8=Tryin' To Make It Back To You
TTITLE9=Spirit Of The Land
EXTD=
EXTT0=
EXTT1=
EXTT2=
EXTT3=
EXTT4=
EXTT5=
EXTT6=
EXTT7=
EXTT8=
EXTT9=
PLAYORDER=
